# xmcd CD database file
#
# Track frame offsets:
#	150
#	127645
#	193815
#
# Disc length: 3406 seconds
#
# Revision: 2
# Processed by: cddbd v1.5.2PL0 Copyright (c) Steve Scherf et al.
# Submitted via: CDex 2.00
#
DISCID=1e0d4c03
DTITLE=Various Artist - Hooked On Country
DYEAR=1990
DGENRE=Country
TTITLE0=Country Classics
TTITLE1=Way Out West
TTITLE2=Country Love
EXTD=Strange Disc. 50 Songs divided into three CD tracks. YEAR: 1990
EXTT0=
EXTT1=
EXTT2=
PLAYORDER=
